<?xml version="1.0" encoding="UTF-8" standalone="no"?>
<!DOCTYPE svg PUBLIC "-//W3C//DTD SVG 1.1//EN"
 "http://www.w3.org/Graphics/SVG/1.1/DTD/svg11.dtd">
<!-- Generated by graphviz version 2.43.0 (0)
 -->
<!-- Title: %3 Pages: 1 -->
<svg width="771pt" height="188pt"
 viewBox="0.00 0.00 770.59 188.00" xmlns="http://www.w3.org/2000/svg" xmlns:xlink="http://www.w3.org/1999/xlink">
<g id="graph0" class="graph" transform="scale(1 1) rotate(0) translate(4 184)">
<title>%3</title>
<polygon fill="white" stroke="transparent" points="-4,4 -4,-184 766.59,-184 766.59,4 -4,4"/>
<!-- 0 -->
<g id="node1" class="node">
<title>0</title>
<ellipse fill="none" stroke="black" cx="135.84" cy="-18" rx="71.49" ry="18"/>
<text text-anchor="middle" x="135.84" y="-14.3" font-family="Times,serif" font-size="14.00">struct.Global</text>
</g>
<!-- 1 -->
<g id="node2" class="node">
<title>1</title>
<ellipse fill="none" stroke="black" cx="70.84" cy="-90" rx="70.69" ry="18"/>
<text text-anchor="middle" x="70.84" y="-86.3" font-family="Times,serif" font-size="14.00">struct.String</text>
</g>
<!-- 2 -->
<g id="node3" class="node">
<title>2</title>
<ellipse fill="none" stroke="black" cx="300.84" cy="-18" rx="75.29" ry="18"/>
<text text-anchor="middle" x="300.84" y="-14.3" font-family="Times,serif" font-size="14.00">trait.Allocator</text>
</g>
<!-- 3 -->
<g id="node4" class="node">
<title>3</title>
<ellipse fill="none" stroke="black" cx="368.84" cy="-162" rx="64.99" ry="18"/>
<text text-anchor="middle" x="368.84" y="-158.3" font-family="Times,serif" font-size="14.00">enum.Value</text>
</g>
<!-- 3&#45;&gt;1 -->
<g id="edge4" class="edge">
<title>3&#45;&gt;1</title>
<path fill="none" stroke="black" d="M320.96,-149.75C269.28,-137.61 186.86,-118.25 130.88,-105.1"/>
<polygon fill="black" stroke="black" points="131.63,-101.68 121.09,-102.8 130.03,-108.5 131.63,-101.68"/>
</g>
<!-- 3&#45;&gt;3 -->
<g id="edge6" class="edge">
<title>3&#45;&gt;3</title>
<path fill="none" stroke="black" d="M413.24,-175.23C433.84,-176.68 451.84,-172.27 451.84,-162 451.84,-153.5 439.5,-149.01 423.56,-148.54"/>
<polygon fill="black" stroke="black" points="423.17,-145.05 413.24,-148.77 423.32,-152.05 423.17,-145.05"/>
</g>
<!-- 4 -->
<g id="node5" class="node">
<title>4</title>
<ellipse fill="none" stroke="black" cx="217.84" cy="-90" rx="57.69" ry="18"/>
<text text-anchor="middle" x="217.84" y="-86.3" font-family="Times,serif" font-size="14.00">struct.Vec</text>
</g>
<!-- 3&#45;&gt;4 -->
<g id="edge1" class="edge">
<title>3&#45;&gt;4</title>
<path fill="none" stroke="black" d="M336.82,-146.15C313.79,-135.48 282.57,-121.01 257.9,-109.57"/>
<polygon fill="black" stroke="black" points="259.33,-106.38 248.79,-105.35 256.39,-112.73 259.33,-106.38"/>
</g>
<!-- 5 -->
<g id="node6" class="node">
<title>5</title>
<ellipse fill="none" stroke="black" cx="368.84" cy="-90" rx="75.29" ry="18"/>
<text text-anchor="middle" x="368.84" y="-86.3" font-family="Times,serif" font-size="14.00">primitive.bool</text>
</g>
<!-- 3&#45;&gt;5 -->
<g id="edge2" class="edge">
<title>3&#45;&gt;5</title>
<path fill="none" stroke="black" d="M368.84,-143.7C368.84,-135.98 368.84,-126.71 368.84,-118.11"/>
<polygon fill="black" stroke="black" points="372.34,-118.1 368.84,-108.1 365.34,-118.1 372.34,-118.1"/>
</g>
<!-- 6 -->
<g id="node7" class="node">
<title>6</title>
<ellipse fill="none" stroke="black" cx="541.84" cy="-90" rx="79.09" ry="18"/>
<text text-anchor="middle" x="541.84" y="-86.3" font-family="Times,serif" font-size="14.00">struct.Number</text>
</g>
<!-- 3&#45;&gt;6 -->
<g id="edge5" class="edge">
<title>3&#45;&gt;6</title>
<path fill="none" stroke="black" d="M403.85,-146.83C430.2,-136.17 466.56,-121.46 495.35,-109.81"/>
<polygon fill="black" stroke="black" points="496.84,-112.99 504.79,-105.99 494.21,-106.5 496.84,-112.99"/>
</g>
<!-- 7 -->
<g id="node8" class="node">
<title>7</title>
<ellipse fill="none" stroke="black" cx="700.84" cy="-90" rx="61.99" ry="18"/>
<text text-anchor="middle" x="700.84" y="-86.3" font-family="Times,serif" font-size="14.00">struct.Map</text>
</g>
<!-- 3&#45;&gt;7 -->
<g id="edge3" class="edge">
<title>3&#45;&gt;7</title>
<path fill="none" stroke="black" d="M420.95,-150.97C473.72,-140.69 557.61,-123.98 629.84,-108 634.82,-106.9 639.99,-105.72 645.16,-104.53"/>
<polygon fill="black" stroke="black" points="646.13,-107.89 655.07,-102.21 644.53,-101.08 646.13,-107.89"/>
</g>
<!-- 4&#45;&gt;0 -->
<g id="edge8" class="edge">
<title>4&#45;&gt;0</title>
<path fill="none" stroke="black" d="M198.83,-72.76C188.14,-63.64 174.62,-52.1 162.86,-42.06"/>
<polygon fill="black" stroke="black" points="164.92,-39.22 155.04,-35.39 160.38,-44.54 164.92,-39.22"/>
</g>
<!-- 4&#45;&gt;2 -->
<g id="edge7" class="edge">
<title>4&#45;&gt;2</title>
<path fill="none" stroke="black" d="M237.09,-72.76C247.83,-63.71 261.39,-52.27 273.25,-42.28"/>
<polygon fill="black" stroke="black" points="275.73,-44.76 281.12,-35.63 271.22,-39.4 275.73,-44.76"/>
</g>
</g>
</svg>
